<svg width="172" height="78" viewBox="0 0 172 78" fill="none" xmlns="http://www.w3.org/2000/svg">
<path fill-rule="evenodd" clip-rule="evenodd" d="M15.5 63.5C16.3333 63.1666 18 62.2 18 61C18 59.8 18.6667 53.5 19 50.5L13.5 44.5C10.8333 44.3333 5 43.2 3 40C1 36.8 0.166666 32.3333 0 30.5C2.83333 30.5 9.1 31.3 11.5 34.5C13.9 37.7 15.1667 41.5 15.5 43L19 46L19.5 37L16.5 33C14.5 33 10 32.3 8 29.5C6 26.7 4.83333 22.3333 4.5 20.5C7.16667 20.3333 13 20.9 15 24.5C17 28.1 17.8333 30.6666 18 31.5L20 33.5L20.5 24L18.5 22C16.5 22.1666 12.1 21.7 10.5 18.5C8.9 15.3 8.5 12.5 8.5 11.5C10.1667 11.3333 14 11.5 16 13.5C18 15.5 19.5 19.6667 20 21.5L20.5 14.5C18.8333 12.8333 15.9 8.8 17.5 6C18.9579 3.44864 20.5266 1.25706 21.298 0.257497C21.3732 0.160088 21.4408 0.0739986 21.5 0C21.5592 0.0739986 21.6268 0.160088 21.702 0.257497C22.4734 1.25706 24.0421 3.44864 25.5 6C27.1 8.8 24.1667 12.8333 22.5 14.5L23 21.5C23.5 19.6667 25 15.5 27 13.5C29 11.5 32.8333 11.3333 34.5 11.5C34.5 12.5 34.1 15.3 32.5 18.5C30.9 21.7 26.5 22.1666 24.5 22L22.5 24L23 33.5L25 31.5C25.1667 30.6666 26 28.1 28 24.5C30 20.9 35.8333 20.3333 38.5 20.5C38.1667 22.3333 37 26.7 35 29.5C33 32.3 28.5 33 26.5 33L23.5 37L24 46L27.5 43C27.8333 41.5 29.1 37.7 31.5 34.5C33.9 31.3 40.1667 30.5 43 30.5C42.8333 32.3333 42 36.8 40 40C38 43.2 32.1667 44.3333 29.5 44.5L24 50.5C24.3333 53.5 25 59.8 25 61C25 62.2 26.6667 63.1666 27.5 63.5H22H21H15.5Z" fill="white"/>
<path d="M56.93 41V40.37C58.01 40.37 58.64 40.17 58.82 39.77V29.63C57.58 29.53 56.95 29.48 56.93 29.48V28.79C57.31 28.79 58.05 28.58 59.15 28.16C60.27 27.72 61.06 27.5 61.52 27.5V28.88C62.6 27.96 63.79 27.5 65.09 27.5C66.95 27.5 68.29 27.85 69.11 28.55C69.95 29.23 70.37 30.3 70.37 31.76V39.77C70.55 40.17 71.18 40.37 72.26 40.37V41H65.78V40.37C66.86 40.37 67.49 40.17 67.67 39.77V31.55C67.67 29.53 66.75 28.52 64.91 28.52C63.65 28.52 62.52 28.96 61.52 29.84V39.77C61.7 40.17 62.33 40.37 63.41 40.37V41H56.93ZM76.1178 30.02C76.3978 30.02 76.6378 30.12 76.8378 30.32C77.0578 30.52 77.1678 30.83 77.1678 31.25C77.1678 31.59 77.0278 31.85 76.7478 32.03C76.4878 32.21 76.1778 32.3 75.8178 32.3C75.4378 32.3 75.1278 32.17 74.8878 31.91C74.6478 31.63 74.5278 31.26 74.5278 30.8C74.5278 29.76 74.9578 28.95 75.8178 28.37C76.6778 27.79 77.8978 27.5 79.4778 27.5C81.3378 27.5 82.6978 27.96 83.5578 28.88C84.4378 29.8 84.8778 31.02 84.8778 32.54V38.48C84.8778 39.12 84.9778 39.59 85.1778 39.89C85.3978 40.19 85.6578 40.34 85.9578 40.34C86.2178 40.34 86.4478 40.27 86.6478 40.13C86.8678 39.99 86.9778 39.82 86.9778 39.62H87.5178C87.5178 40.18 87.3078 40.59 86.8878 40.85C86.4878 41.11 85.7778 41.24 84.7578 41.24C83.7578 41.24 83.0478 40.83 82.6278 40.01C81.4478 40.87 79.9778 41.3 78.2178 41.3C75.2178 41.3 73.7178 40.08 73.7178 37.64C73.7178 37.12 73.8978 36.65 74.2578 36.23C74.6378 35.81 75.1778 35.46 75.8778 35.18C76.5778 34.9 77.2378 34.68 77.8578 34.52C78.4778 34.34 79.2478 34.15 80.1678 33.95C81.1078 33.73 81.7778 33.56 82.1778 33.44C82.1778 31.76 81.9578 30.53 81.5178 29.75C81.0778 28.97 80.2978 28.58 79.1778 28.58C77.3778 28.58 76.3578 29.06 76.1178 30.02ZM82.3578 39.26C82.2378 38.82 82.1778 38.28 82.1778 37.64V34.1C81.9578 34.18 81.5778 34.29 81.0378 34.43C80.5178 34.57 80.0878 34.69 79.7478 34.79C79.4278 34.89 79.0378 35.04 78.5778 35.24C78.1178 35.44 77.7578 35.64 77.4978 35.84C77.2378 36.04 77.0078 36.31 76.8078 36.65C76.6078 36.97 76.5078 37.32 76.5078 37.7C76.5078 38.66 76.6878 39.33 77.0478 39.71C77.4278 40.09 77.9878 40.28 78.7278 40.28C80.0478 40.28 81.2578 39.94 82.3578 39.26ZM92.6598 23.45V27.8H95.2398V28.7H92.6598V38.24C92.6598 38.86 92.7698 39.34 92.9898 39.68C93.2098 40 93.6198 40.16 94.2198 40.16C94.5798 40.16 94.9398 39.99 95.2998 39.65C95.6798 39.29 95.9398 38.8 96.0798 38.18L96.7998 38.54C96.3798 40.38 95.1798 41.3 93.1998 41.3C90.9198 41.3 89.7798 40.2 89.7798 38V28.7H87.6798V27.8C88.6198 27.8 89.4698 27.41 90.2298 26.63C90.9898 25.85 91.3698 24.79 91.3698 23.45H92.6598ZM111.2 39.17C111.2 39.17 111.83 39.22 113.09 39.32V40.01C112.71 40.01 111.96 40.23 110.84 40.67C109.74 41.09 108.96 41.3 108.5 41.3V39.92C107.42 40.84 106.23 41.3 104.93 41.3C103.07 41.3 101.72 40.96 100.88 40.28C100.06 39.58 99.65 38.5 99.65 37.04V29.03C99.47 28.63 98.84 28.43 97.76 28.43V27.8H102.35V37.25C102.35 39.27 103.27 40.28 105.11 40.28C106.37 40.28 107.5 39.84 108.5 38.96V29.03C108.32 28.63 107.69 28.43 106.61 28.43V27.8H111.2V39.17ZM114.674 41V40.37C115.754 40.37 116.384 40.17 116.564 39.77V29.63C115.324 29.53 114.694 29.48 114.674 29.48V28.79C115.054 28.79 115.794 28.58 116.894 28.16C118.014 27.72 118.804 27.5 119.264 27.5V28.82C120.264 27.94 121.254 27.5 122.234 27.5C123.134 27.5 123.884 27.67 124.484 28.01C125.104 28.35 125.414 28.73 125.414 29.15C125.414 29.87 125.014 30.23 124.214 30.23C123.794 30.23 123.414 29.95 123.074 29.39C122.734 28.81 122.344 28.52 121.904 28.52C121.124 28.52 120.244 28.95 119.264 29.81V39.77C119.444 40.17 120.074 40.37 121.154 40.37V41H114.674ZM129.454 33.77C129.474 35.45 129.954 36.94 130.894 38.24C131.854 39.52 132.924 40.16 134.104 40.16C135.844 40.16 137.244 39.5 138.304 38.18L139.024 38.54C138.444 39.5 137.684 40.2 136.744 40.64C135.824 41.08 134.604 41.3 133.084 41.3C132.324 41.3 131.594 41.19 130.894 40.97C130.194 40.73 129.504 40.35 128.824 39.83C128.144 39.29 127.604 38.5 127.204 37.46C126.804 36.42 126.604 35.18 126.604 33.74C126.604 31.98 127.144 30.5 128.224 29.3C129.324 28.1 130.844 27.5 132.784 27.5C134.904 27.5 136.484 28.1 137.524 29.3C138.564 30.48 139.084 31.97 139.084 33.77H129.454ZM129.484 32.84H136.144C136.024 31.4 135.714 30.3 135.214 29.54C134.734 28.78 133.884 28.4 132.664 28.4C131.964 28.4 131.284 28.81 130.624 29.63C129.984 30.45 129.604 31.52 129.484 32.84ZM142.269 24.23C141.029 24.13 140.399 24.08 140.379 24.08V23.39C140.759 23.39 141.499 23.18 142.599 22.76C143.719 22.32 144.509 22.1 144.969 22.1V28.79C145.949 27.85 147.319 27.38 149.079 27.38C149.739 27.38 150.389 27.5 151.029 27.74C151.689 27.96 152.339 28.32 152.979 28.82C153.639 29.3 154.169 30.02 154.569 30.98C154.989 31.94 155.199 33.06 155.199 34.34C155.199 36.58 154.569 38.3 153.309 39.5C152.069 40.7 150.439 41.3 148.419 41.3C146.979 41.3 145.789 40.92 144.849 40.16C143.749 40.92 142.889 41.3 142.269 41.3V24.23ZM144.969 29.81V39.23C145.769 39.93 146.859 40.28 148.239 40.28C149.339 40.28 150.299 39.76 151.119 38.72C151.939 37.66 152.349 36.2 152.349 34.34C152.349 32.58 152.019 31.15 151.359 30.05C150.699 28.95 149.839 28.4 148.779 28.4C147.099 28.4 145.829 28.87 144.969 29.81ZM159.731 30.02C160.011 30.02 160.251 30.12 160.451 30.32C160.671 30.52 160.781 30.83 160.781 31.25C160.781 31.59 160.641 31.85 160.361 32.03C160.101 32.21 159.791 32.3 159.431 32.3C159.051 32.3 158.741 32.17 158.501 31.91C158.261 31.63 158.141 31.26 158.141 30.8C158.141 29.76 158.571 28.95 159.431 28.37C160.291 27.79 161.511 27.5 163.091 27.5C164.951 27.5 166.311 27.96 167.171 28.88C168.051 29.8 168.491 31.02 168.491 32.54V38.48C168.491 39.12 168.591 39.59 168.791 39.89C169.011 40.19 169.271 40.34 169.571 40.34C169.831 40.34 170.061 40.27 170.261 40.13C170.481 39.99 170.591 39.82 170.591 39.62H171.131C171.131 40.18 170.921 40.59 170.501 40.85C170.101 41.11 169.391 41.24 168.371 41.24C167.371 41.24 166.661 40.83 166.241 40.01C165.061 40.87 163.591 41.3 161.831 41.3C158.831 41.3 157.331 40.08 157.331 37.64C157.331 37.12 157.511 36.65 157.871 36.23C158.251 35.81 158.791 35.46 159.491 35.18C160.191 34.9 160.851 34.68 161.471 34.52C162.091 34.34 162.861 34.15 163.781 33.95C164.721 33.73 165.391 33.56 165.791 33.44C165.791 31.76 165.571 30.53 165.131 29.75C164.691 28.97 163.911 28.58 162.791 28.58C160.991 28.58 159.971 29.06 159.731 30.02ZM165.971 39.26C165.851 38.82 165.791 38.28 165.791 37.64V34.1C165.571 34.18 165.191 34.29 164.651 34.43C164.131 34.57 163.701 34.69 163.361 34.79C163.041 34.89 162.651 35.04 162.191 35.24C161.731 35.44 161.371 35.64 161.111 35.84C160.851 36.04 160.621 36.31 160.421 36.65C160.221 36.97 160.121 37.32 160.121 37.7C160.121 38.66 160.301 39.33 160.661 39.71C161.041 40.09 161.601 40.28 162.341 40.28C163.661 40.28 164.871 39.94 165.971 39.26Z" fill="white"/>
<path d="M60.44 59L58.78 56.15H57.68V59H56.77V52.03H59.02C59.5467 52.03 59.99 52.12 60.35 52.3C60.7167 52.48 60.99 52.7233 61.17 53.03C61.35 53.3367 61.44 53.6867 61.44 54.08C61.44 54.56 61.3 54.9833 61.02 55.35C60.7467 55.7167 60.3333 55.96 59.78 56.08L61.53 59H60.44ZM57.68 55.42H59.02C59.5133 55.42 59.8833 55.3 60.13 55.06C60.3767 54.8133 60.5 54.4867 60.5 54.08C60.5 53.6667 60.3767 53.3467 60.13 53.12C59.89 52.8933 59.52 52.78 59.02 52.78H57.68V55.42ZM67.714 53.52V59H66.804V58.19C66.6307 58.47 66.3873 58.69 66.074 58.85C65.7673 59.0033 65.4273 59.08 65.054 59.08C64.6273 59.08 64.244 58.9933 63.904 58.82C63.564 58.64 63.294 58.3733 63.094 58.02C62.9007 57.6667 62.804 57.2367 62.804 56.73V53.52H63.704V56.61C63.704 57.15 63.8407 57.5667 64.114 57.86C64.3873 58.1467 64.7607 58.29 65.234 58.29C65.7207 58.29 66.104 58.14 66.384 57.84C66.664 57.54 66.804 57.1033 66.804 56.53V53.52H67.714ZM68.9105 56.24C68.9105 55.68 69.0238 55.19 69.2505 54.77C69.4771 54.3433 69.7871 54.0133 70.1805 53.78C70.5805 53.5467 71.0238 53.43 71.5105 53.43C71.9905 53.43 72.4071 53.5333 72.7605 53.74C73.1138 53.9467 73.3771 54.2067 73.5505 54.52V53.52H74.4705V59H73.5505V57.98C73.3705 58.3 73.1005 58.5667 72.7405 58.78C72.3871 58.9867 71.9738 59.09 71.5005 59.09C71.0138 59.09 70.5738 58.97 70.1805 58.73C69.7871 58.49 69.4771 58.1533 69.2505 57.72C69.0238 57.2867 68.9105 56.7933 68.9105 56.24ZM73.5505 56.25C73.5505 55.8367 73.4671 55.4767 73.3005 55.17C73.1338 54.8633 72.9071 54.63 72.6205 54.47C72.3405 54.3033 72.0305 54.22 71.6905 54.22C71.3505 54.22 71.0405 54.3 70.7605 54.46C70.4805 54.62 70.2571 54.8533 70.0905 55.16C69.9238 55.4667 69.8405 55.8267 69.8405 56.24C69.8405 56.66 69.9238 57.0267 70.0905 57.34C70.2571 57.6467 70.4805 57.8833 70.7605 58.05C71.0405 58.21 71.3505 58.29 71.6905 58.29C72.0305 58.29 72.3405 58.21 72.6205 58.05C72.9071 57.8833 73.1338 57.6467 73.3005 57.34C73.4671 57.0267 73.5505 56.6633 73.5505 56.25ZM84.1543 59H83.2443L79.5843 53.45V59H78.6743V52.02H79.5843L83.2443 57.56V52.02H84.1543V59ZM85.3655 56.24C85.3655 55.68 85.4789 55.19 85.7055 54.77C85.9322 54.3433 86.2422 54.0133 86.6355 53.78C87.0355 53.5467 87.4789 53.43 87.9655 53.43C88.4455 53.43 88.8622 53.5333 89.2155 53.74C89.5689 53.9467 89.8322 54.2067 90.0055 54.52V53.52H90.9255V59H90.0055V57.98C89.8255 58.3 89.5555 58.5667 89.1955 58.78C88.8422 58.9867 88.4289 59.09 87.9555 59.09C87.4689 59.09 87.0289 58.97 86.6355 58.73C86.2422 58.49 85.9322 58.1533 85.7055 57.72C85.4789 57.2867 85.3655 56.7933 85.3655 56.24ZM90.0055 56.25C90.0055 55.8367 89.9222 55.4767 89.7555 55.17C89.5889 54.8633 89.3622 54.63 89.0755 54.47C88.7955 54.3033 88.4855 54.22 88.1455 54.22C87.8055 54.22 87.4955 54.3 87.2155 54.46C86.9355 54.62 86.7122 54.8533 86.5455 55.16C86.3789 55.4667 86.2955 55.8267 86.2955 56.24C86.2955 56.66 86.3789 57.0267 86.5455 57.34C86.7122 57.6467 86.9355 57.8833 87.2155 58.05C87.4955 58.21 87.8055 58.29 88.1455 58.29C88.4855 58.29 88.7955 58.21 89.0755 58.05C89.3622 57.8833 89.5889 57.6467 89.7555 57.34C89.9222 57.0267 90.0055 56.6633 90.0055 56.25ZM93.5734 54.27V57.5C93.5734 57.7667 93.63 57.9567 93.7434 58.07C93.8567 58.1767 94.0534 58.23 94.3334 58.23H95.0034V59H94.1834C93.6767 59 93.2967 58.8833 93.0434 58.65C92.79 58.4167 92.6634 58.0333 92.6634 57.5V54.27H91.9534V53.52H92.6634V52.14H93.5734V53.52H95.0034V54.27H93.5734ZM100.966 53.52V59H100.056V58.19C99.8826 58.47 99.6393 58.69 99.3259 58.85C99.0193 59.0033 98.6793 59.08 98.3059 59.08C97.8793 59.08 97.4959 58.9933 97.1559 58.82C96.8159 58.64 96.5459 58.3733 96.3459 58.02C96.1526 57.6667 96.0559 57.2367 96.0559 56.73V53.52H96.9559V56.61C96.9559 57.15 97.0926 57.5667 97.3659 57.86C97.6393 58.1467 98.0126 58.29 98.4859 58.29C98.9726 58.29 99.3559 58.14 99.6359 57.84C99.9159 57.54 100.056 57.1033 100.056 56.53V53.52H100.966ZM103.412 54.41C103.572 54.0967 103.799 53.8533 104.092 53.68C104.392 53.5067 104.756 53.42 105.182 53.42V54.36H104.942C103.922 54.36 103.412 54.9133 103.412 56.02V59H102.502V53.52H103.412V54.41ZM111.233 56.05C111.233 56.2233 111.223 56.4067 111.203 56.6H106.823C106.856 57.14 107.04 57.5633 107.373 57.87C107.713 58.17 108.123 58.32 108.603 58.32C108.996 58.32 109.323 58.23 109.583 58.05C109.85 57.8633 110.036 57.6167 110.143 57.31H111.123C110.976 57.8367 110.683 58.2667 110.243 58.6C109.803 58.9267 109.256 59.09 108.603 59.09C108.083 59.09 107.616 58.9733 107.203 58.74C106.796 58.5067 106.476 58.1767 106.243 57.75C106.01 57.3167 105.893 56.8167 105.893 56.25C105.893 55.6833 106.006 55.1867 106.233 54.76C106.46 54.3333 106.776 54.0067 107.183 53.78C107.596 53.5467 108.07 53.43 108.603 53.43C109.123 53.43 109.583 53.5433 109.983 53.77C110.383 53.9967 110.69 54.31 110.903 54.71C111.123 55.1033 111.233 55.55 111.233 56.05ZM110.293 55.86C110.293 55.5133 110.216 55.2167 110.063 54.97C109.91 54.7167 109.7 54.5267 109.433 54.4C109.173 54.2667 108.883 54.2 108.563 54.2C108.103 54.2 107.71 54.3467 107.383 54.64C107.063 54.9333 106.88 55.34 106.833 55.86H110.293ZM113.344 54.54C113.531 54.2133 113.804 53.9467 114.164 53.74C114.524 53.5333 114.934 53.43 115.394 53.43C115.887 53.43 116.331 53.5467 116.724 53.78C117.117 54.0133 117.427 54.3433 117.654 54.77C117.881 55.19 117.994 55.68 117.994 56.24C117.994 56.7933 117.881 57.2867 117.654 57.72C117.427 58.1533 117.114 58.49 116.714 58.73C116.321 58.97 115.881 59.09 115.394 59.09C114.921 59.09 114.504 58.9867 114.144 58.78C113.791 58.5733 113.524 58.31 113.344 57.99V59H112.434V51.6H113.344V54.54ZM117.064 56.24C117.064 55.8267 116.981 55.4667 116.814 55.16C116.647 54.8533 116.421 54.62 116.134 54.46C115.854 54.3 115.544 54.22 115.204 54.22C114.871 54.22 114.561 54.3033 114.274 54.47C113.994 54.63 113.767 54.8667 113.594 55.18C113.427 55.4867 113.344 55.8433 113.344 56.25C113.344 56.6633 113.427 57.0267 113.594 57.34C113.767 57.6467 113.994 57.8833 114.274 58.05C114.561 58.21 114.871 58.29 115.204 58.29C115.544 58.29 115.854 58.21 116.134 58.05C116.421 57.8833 116.647 57.6467 116.814 57.34C116.981 57.0267 117.064 56.66 117.064 56.24ZM118.852 56.24C118.852 55.68 118.965 55.19 119.192 54.77C119.419 54.3433 119.729 54.0133 120.122 53.78C120.522 53.5467 120.965 53.43 121.452 53.43C121.932 53.43 122.349 53.5333 122.702 53.74C123.055 53.9467 123.319 54.2067 123.492 54.52V53.52H124.412V59H123.492V57.98C123.312 58.3 123.042 58.5667 122.682 58.78C122.329 58.9867 121.915 59.09 121.442 59.09C120.955 59.09 120.515 58.97 120.122 58.73C119.729 58.49 119.419 58.1533 119.192 57.72C118.965 57.2867 118.852 56.7933 118.852 56.24ZM123.492 56.25C123.492 55.8367 123.409 55.4767 123.242 55.17C123.075 54.8633 122.849 54.63 122.562 54.47C122.282 54.3033 121.972 54.22 121.632 54.22C121.292 54.22 120.982 54.3 120.702 54.46C120.422 54.62 120.199 54.8533 120.032 55.16C119.865 55.4667 119.782 55.8267 119.782 56.24C119.782 56.66 119.865 57.0267 120.032 57.34C120.199 57.6467 120.422 57.8833 120.702 58.05C120.982 58.21 121.292 58.29 121.632 58.29C121.972 58.29 122.282 58.21 122.562 58.05C122.849 57.8833 123.075 57.6467 123.242 57.34C123.409 57.0267 123.492 56.6633 123.492 56.25ZM126.89 57.74L125.77 60.43H125.16L125.89 57.74H126.89ZM131.618 57.06C131.685 57.44 131.838 57.7333 132.078 57.94C132.325 58.1467 132.655 58.25 133.068 58.25C133.621 58.25 134.028 58.0333 134.288 57.6C134.555 57.1667 134.681 56.4367 134.668 55.41C134.528 55.71 134.295 55.9467 133.968 56.12C133.641 56.2867 133.278 56.37 132.878 56.37C132.431 56.37 132.031 56.28 131.678 56.1C131.331 55.9133 131.058 55.6433 130.858 55.29C130.658 54.9367 130.558 54.51 130.558 54.01C130.558 53.2967 130.765 52.7233 131.178 52.29C131.591 51.85 132.178 51.63 132.938 51.63C133.871 51.63 134.525 51.9333 134.898 52.54C135.278 53.1467 135.468 54.05 135.468 55.25C135.468 56.09 135.391 56.7833 135.238 57.33C135.091 57.8767 134.838 58.2933 134.478 58.58C134.125 58.8667 133.638 59.01 133.018 59.01C132.338 59.01 131.808 58.8267 131.428 58.46C131.048 58.0933 130.831 57.6267 130.778 57.06H131.618ZM133.028 55.6C133.475 55.6 133.841 55.4633 134.128 55.19C134.415 54.91 134.558 54.5333 134.558 54.06C134.558 53.56 134.418 53.1567 134.138 52.85C133.858 52.5433 133.465 52.39 132.958 52.39C132.491 52.39 132.118 52.5367 131.838 52.83C131.565 53.1233 131.428 53.51 131.428 53.99C131.428 54.4767 131.565 54.8667 131.838 55.16C132.111 55.4533 132.508 55.6 133.028 55.6ZM137.917 57.06C137.984 57.44 138.137 57.7333 138.377 57.94C138.624 58.1467 138.954 58.25 139.367 58.25C139.92 58.25 140.327 58.0333 140.587 57.6C140.854 57.1667 140.98 56.4367 140.967 55.41C140.827 55.71 140.594 55.9467 140.267 56.12C139.94 56.2867 139.577 56.37 139.177 56.37C138.73 56.37 138.33 56.28 137.977 56.1C137.63 55.9133 137.357 55.6433 137.157 55.29C136.957 54.9367 136.857 54.51 136.857 54.01C136.857 53.2967 137.064 52.7233 137.477 52.29C137.89 51.85 138.477 51.63 139.237 51.63C140.17 51.63 140.824 51.9333 141.197 52.54C141.577 53.1467 141.767 54.05 141.767 55.25C141.767 56.09 141.69 56.7833 141.537 57.33C141.39 57.8767 141.137 58.2933 140.777 58.58C140.424 58.8667 139.937 59.01 139.317 59.01C138.637 59.01 138.107 58.8267 137.727 58.46C137.347 58.0933 137.13 57.6267 137.077 57.06H137.917ZM139.327 55.6C139.774 55.6 140.14 55.4633 140.427 55.19C140.714 54.91 140.857 54.5333 140.857 54.06C140.857 53.56 140.717 53.1567 140.437 52.85C140.157 52.5433 139.764 52.39 139.257 52.39C138.79 52.39 138.417 52.5367 138.137 52.83C137.864 53.1233 137.727 53.51 137.727 53.99C137.727 54.4767 137.864 54.8667 138.137 55.16C138.41 55.4533 138.807 55.6 139.327 55.6ZM56.62 70.31C56.62 69.1633 56.8067 68.27 57.18 67.63C57.5533 66.9833 58.2067 66.66 59.14 66.66C60.0667 66.66 60.7167 66.9833 61.09 67.63C61.4633 68.27 61.65 69.1633 61.65 70.31C61.65 71.4767 61.4633 72.3833 61.09 73.03C60.7167 73.6767 60.0667 74 59.14 74C58.2067 74 57.5533 73.6767 57.18 73.03C56.8067 72.3833 56.62 71.4767 56.62 70.31ZM60.75 70.31C60.75 69.73 60.71 69.24 60.63 68.84C60.5567 68.4333 60.4 68.1067 60.16 67.86C59.9267 67.6133 59.5867 67.49 59.14 67.49C58.6867 67.49 58.34 67.6133 58.1 67.86C57.8667 68.1067 57.71 68.4333 57.63 68.84C57.5567 69.24 57.52 69.73 57.52 70.31C57.52 70.91 57.5567 71.4133 57.63 71.82C57.71 72.2267 57.8667 72.5533 58.1 72.8C58.34 73.0467 58.6867 73.17 59.14 73.17C59.5867 73.17 59.9267 73.0467 60.16 72.8C60.4 72.5533 60.5567 72.2267 60.63 71.82C60.71 71.4133 60.75 70.91 60.75 70.31ZM64.0693 72.06C64.136 72.44 64.2893 72.7333 64.5293 72.94C64.776 73.1467 65.106 73.25 65.5193 73.25C66.0726 73.25 66.4793 73.0333 66.7393 72.6C67.006 72.1667 67.1326 71.4367 67.1193 70.41C66.9793 70.71 66.746 70.9467 66.4193 71.12C66.0926 71.2867 65.7293 71.37 65.3293 71.37C64.8826 71.37 64.4826 71.28 64.1293 71.1C63.7826 70.9133 63.5093 70.6433 63.3093 70.29C63.1093 69.9367 63.0093 69.51 63.0093 69.01C63.0093 68.2967 63.216 67.7233 63.6293 67.29C64.0426 66.85 64.6293 66.63 65.3893 66.63C66.3226 66.63 66.976 66.9333 67.3493 67.54C67.7293 68.1467 67.9193 69.05 67.9193 70.25C67.9193 71.09 67.8426 71.7833 67.6893 72.33C67.5426 72.8767 67.2893 73.2933 66.9293 73.58C66.576 73.8667 66.0893 74.01 65.4693 74.01C64.7893 74.01 64.2593 73.8267 63.8793 73.46C63.4993 73.0933 63.2826 72.6267 63.2293 72.06H64.0693ZM65.4793 70.6C65.926 70.6 66.2926 70.4633 66.5793 70.19C66.866 69.91 67.0093 69.5333 67.0093 69.06C67.0093 68.56 66.8693 68.1567 66.5893 67.85C66.3093 67.5433 65.916 67.39 65.4093 67.39C64.9426 67.39 64.5693 67.5367 64.2893 67.83C64.016 68.1233 63.8793 68.51 63.8793 68.99C63.8793 69.4767 64.016 69.8667 64.2893 70.16C64.5626 70.4533 64.9593 70.6 65.4793 70.6ZM69.1981 70.31C69.1981 69.1633 69.3848 68.27 69.7581 67.63C70.1315 66.9833 70.7848 66.66 71.7181 66.66C72.6448 66.66 73.2948 66.9833 73.6681 67.63C74.0415 68.27 74.2281 69.1633 74.2281 70.31C74.2281 71.4767 74.0415 72.3833 73.6681 73.03C73.2948 73.6767 72.6448 74 71.7181 74C70.7848 74 70.1315 73.6767 69.7581 73.03C69.3848 72.3833 69.1981 71.4767 69.1981 70.31ZM73.3281 70.31C73.3281 69.73 73.2881 69.24 73.2081 68.84C73.1348 68.4333 72.9781 68.1067 72.7381 67.86C72.5048 67.6133 72.1648 67.49 71.7181 67.49C71.2648 67.49 70.9181 67.6133 70.6781 67.86C70.4448 68.1067 70.2881 68.4333 70.2081 68.84C70.1348 69.24 70.0981 69.73 70.0981 70.31C70.0981 70.91 70.1348 71.4133 70.2081 71.82C70.2881 72.2267 70.4448 72.5533 70.6781 72.8C70.9181 73.0467 71.2648 73.17 71.7181 73.17C72.1648 73.17 72.5048 73.0467 72.7381 72.8C72.9781 72.5533 73.1348 72.2267 73.2081 71.82C73.2881 71.4133 73.3281 70.91 73.3281 70.31ZM75.4774 70.31C75.4774 69.1633 75.6641 68.27 76.0374 67.63C76.4108 66.9833 77.0641 66.66 77.9974 66.66C78.9241 66.66 79.5741 66.9833 79.9474 67.63C80.3208 68.27 80.5074 69.1633 80.5074 70.31C80.5074 71.4767 80.3208 72.3833 79.9474 73.03C79.5741 73.6767 78.9241 74 77.9974 74C77.0641 74 76.4108 73.6767 76.0374 73.03C75.6641 72.3833 75.4774 71.4767 75.4774 70.31ZM79.6074 70.31C79.6074 69.73 79.5674 69.24 79.4874 68.84C79.4141 68.4333 79.2574 68.1067 79.0174 67.86C78.7841 67.6133 78.4441 67.49 77.9974 67.49C77.5441 67.49 77.1974 67.6133 76.9574 67.86C76.7241 68.1067 76.5674 68.4333 76.4874 68.84C76.4141 69.24 76.3774 69.73 76.3774 70.31C76.3774 70.91 76.4141 71.4133 76.4874 71.82C76.5674 72.2267 76.7241 72.5533 76.9574 72.8C77.1974 73.0467 77.5441 73.17 77.9974 73.17C78.4441 73.17 78.7841 73.0467 79.0174 72.8C79.2574 72.5533 79.4141 72.2267 79.4874 71.82C79.5674 71.4133 79.6074 70.91 79.6074 70.31ZM81.7567 70.31C81.7567 69.1633 81.9434 68.27 82.3167 67.63C82.6901 66.9833 83.3434 66.66 84.2767 66.66C85.2034 66.66 85.8534 66.9833 86.2267 67.63C86.6001 68.27 86.7867 69.1633 86.7867 70.31C86.7867 71.4767 86.6001 72.3833 86.2267 73.03C85.8534 73.6767 85.2034 74 84.2767 74C83.3434 74 82.6901 73.6767 82.3167 73.03C81.9434 72.3833 81.7567 71.4767 81.7567 70.31ZM85.8867 70.31C85.8867 69.73 85.8467 69.24 85.7667 68.84C85.6934 68.4333 85.5367 68.1067 85.2967 67.86C85.0634 67.6133 84.7234 67.49 84.2767 67.49C83.8234 67.49 83.4767 67.6133 83.2367 67.86C83.0034 68.1067 82.8467 68.4333 82.7667 68.84C82.6934 69.24 82.6567 69.73 82.6567 70.31C82.6567 70.91 82.6934 71.4133 82.7667 71.82C82.8467 72.2267 83.0034 72.5533 83.2367 72.8C83.4767 73.0467 83.8234 73.17 84.2767 73.17C84.7234 73.17 85.0634 73.0467 85.2967 72.8C85.5367 72.5533 85.6934 72.2267 85.7667 71.82C85.8467 71.4133 85.8867 70.91 85.8867 70.31ZM91.986 69.95V70.72H87.996V69.95H91.986ZM93.5438 70.31C93.5438 69.1633 93.7305 68.27 94.1038 67.63C94.4772 66.9833 95.1305 66.66 96.0638 66.66C96.9905 66.66 97.6405 66.9833 98.0138 67.63C98.3872 68.27 98.5738 69.1633 98.5738 70.31C98.5738 71.4767 98.3872 72.3833 98.0138 73.03C97.6405 73.6767 96.9905 74 96.0638 74C95.1305 74 94.4772 73.6767 94.1038 73.03C93.7305 72.3833 93.5438 71.4767 93.5438 70.31ZM97.6738 70.31C97.6738 69.73 97.6338 69.24 97.5538 68.84C97.4805 68.4333 97.3238 68.1067 97.0838 67.86C96.8505 67.6133 96.5105 67.49 96.0638 67.49C95.6105 67.49 95.2638 67.6133 95.0238 67.86C94.7905 68.1067 94.6338 68.4333 94.5538 68.84C94.4805 69.24 94.4438 69.73 94.4438 70.31C94.4438 70.91 94.4805 71.4133 94.5538 71.82C94.6338 72.2267 94.7905 72.5533 95.0238 72.8C95.2638 73.0467 95.6105 73.17 96.0638 73.17C96.5105 73.17 96.8505 73.0467 97.0838 72.8C97.3238 72.5533 97.4805 72.2267 97.5538 71.82C97.6338 71.4133 97.6738 70.91 97.6738 70.31ZM99.8231 70.31C99.8231 69.1633 100.01 68.27 100.383 67.63C100.756 66.9833 101.41 66.66 102.343 66.66C103.27 66.66 103.92 66.9833 104.293 67.63C104.666 68.27 104.853 69.1633 104.853 70.31C104.853 71.4767 104.666 72.3833 104.293 73.03C103.92 73.6767 103.27 74 102.343 74C101.41 74 100.756 73.6767 100.383 73.03C100.01 72.3833 99.8231 71.4767 99.8231 70.31ZM103.953 70.31C103.953 69.73 103.913 69.24 103.833 68.84C103.76 68.4333 103.603 68.1067 103.363 67.86C103.13 67.6133 102.79 67.49 102.343 67.49C101.89 67.49 101.543 67.6133 101.303 67.86C101.07 68.1067 100.913 68.4333 100.833 68.84C100.76 69.24 100.723 69.73 100.723 70.31C100.723 70.91 100.76 71.4133 100.833 71.82C100.913 72.2267 101.07 72.5533 101.303 72.8C101.543 73.0467 101.89 73.17 102.343 73.17C102.79 73.17 103.13 73.0467 103.363 72.8C103.603 72.5533 103.76 72.2267 103.833 71.82C103.913 71.4133 103.953 70.91 103.953 70.31Z" fill="white"/>
</svg>
