<svg width="172" height="64" viewBox="0 0 172 64" fill="none" xmlns="http://www.w3.org/2000/svg">
<path fill-rule="evenodd" clip-rule="evenodd" d="M15.5 63.5C16.3333 63.1666 18 62.2 18 61C18 59.8 18.6667 53.5 19 50.5L13.5 44.5C10.8333 44.3333 5 43.2 3 40C1 36.8 0.166666 32.3333 0 30.5C2.83333 30.5 9.1 31.3 11.5 34.5C13.9 37.7 15.1667 41.5 15.5 43L19 46L19.5 37L16.5 33C14.5 33 10 32.3 8 29.5C6 26.7 4.83333 22.3333 4.5 20.5C7.16667 20.3333 13 20.9 15 24.5C17 28.1 17.8333 30.6666 18 31.5L20 33.5L20.5 24L18.5 22C16.5 22.1666 12.1 21.7 10.5 18.5C8.9 15.3 8.5 12.5 8.5 11.5C10.1667 11.3333 14 11.5 16 13.5C18 15.5 19.5 19.6667 20 21.5L20.5 14.5C18.8333 12.8333 15.9 8.8 17.5 6C18.9579 3.44864 20.5266 1.25706 21.298 0.257497C21.3732 0.160088 21.4408 0.0739986 21.5 0C21.5592 0.0739986 21.6268 0.160088 21.702 0.257497C22.4734 1.25706 24.0421 3.44864 25.5 6C27.1 8.8 24.1667 12.8333 22.5 14.5L23 21.5C23.5 19.6667 25 15.5 27 13.5C29 11.5 32.8333 11.3333 34.5 11.5C34.5 12.5 34.1 15.3 32.5 18.5C30.9 21.7 26.5 22.1666 24.5 22L22.5 24L23 33.5L25 31.5C25.1667 30.6666 26 28.1 28 24.5C30 20.9 35.8333 20.3333 38.5 20.5C38.1667 22.3333 37 26.7 35 29.5C33 32.3 28.5 33 26.5 33L23.5 37L24 46L27.5 43C27.8333 41.5 29.1 37.7 31.5 34.5C33.9 31.3 40.1667 30.5 43 30.5C42.8333 32.3333 42 36.8 40 40C38 43.2 32.1667 44.3333 29.5 44.5L24 50.5C24.3333 53.5 25 59.8 25 61C25 62.2 26.6667 63.1666 27.5 63.5H22H21H15.5Z" fill="#3E7D4E"/>
<path d="M56.93 41V40.37C58.01 40.37 58.64 40.17 58.82 39.77V29.63C57.58 29.53 56.95 29.48 56.93 29.48V28.79C57.31 28.79 58.05 28.58 59.15 28.16C60.27 27.72 61.06 27.5 61.52 27.5V28.88C62.6 27.96 63.79 27.5 65.09 27.5C66.95 27.5 68.29 27.85 69.11 28.55C69.95 29.23 70.37 30.3 70.37 31.76V39.77C70.55 40.17 71.18 40.37 72.26 40.37V41H65.78V40.37C66.86 40.37 67.49 40.17 67.67 39.77V31.55C67.67 29.53 66.75 28.52 64.91 28.52C63.65 28.52 62.52 28.96 61.52 29.84V39.77C61.7 40.17 62.33 40.37 63.41 40.37V41H56.93ZM76.1178 30.02C76.3978 30.02 76.6378 30.12 76.8378 30.32C77.0578 30.52 77.1678 30.83 77.1678 31.25C77.1678 31.59 77.0278 31.85 76.7478 32.03C76.4878 32.21 76.1778 32.3 75.8178 32.3C75.4378 32.3 75.1278 32.17 74.8878 31.91C74.6478 31.63 74.5278 31.26 74.5278 30.8C74.5278 29.76 74.9578 28.95 75.8178 28.37C76.6778 27.79 77.8978 27.5 79.4778 27.5C81.3378 27.5 82.6978 27.96 83.5578 28.88C84.4378 29.8 84.8778 31.02 84.8778 32.54V38.48C84.8778 39.12 84.9778 39.59 85.1778 39.89C85.3978 40.19 85.6578 40.34 85.9578 40.34C86.2178 40.34 86.4478 40.27 86.6478 40.13C86.8678 39.99 86.9778 39.82 86.9778 39.62H87.5178C87.5178 40.18 87.3078 40.59 86.8878 40.85C86.4878 41.11 85.7778 41.24 84.7578 41.24C83.7578 41.24 83.0478 40.83 82.6278 40.01C81.4478 40.87 79.9778 41.3 78.2178 41.3C75.2178 41.3 73.7178 40.08 73.7178 37.64C73.7178 37.12 73.8978 36.65 74.2578 36.23C74.6378 35.81 75.1778 35.46 75.8778 35.18C76.5778 34.9 77.2378 34.68 77.8578 34.52C78.4778 34.34 79.2478 34.15 80.1678 33.95C81.1078 33.73 81.7778 33.56 82.1778 33.44C82.1778 31.76 81.9578 30.53 81.5178 29.75C81.0778 28.97 80.2978 28.58 79.1778 28.58C77.3778 28.58 76.3578 29.06 76.1178 30.02ZM82.3578 39.26C82.2378 38.82 82.1778 38.28 82.1778 37.64V34.1C81.9578 34.18 81.5778 34.29 81.0378 34.43C80.5178 34.57 80.0878 34.69 79.7478 34.79C79.4278 34.89 79.0378 35.04 78.5778 35.24C78.1178 35.44 77.7578 35.64 77.4978 35.84C77.2378 36.04 77.0078 36.31 76.8078 36.65C76.6078 36.97 76.5078 37.32 76.5078 37.7C76.5078 38.66 76.6878 39.33 77.0478 39.71C77.4278 40.09 77.9878 40.28 78.7278 40.28C80.0478 40.28 81.2578 39.94 82.3578 39.26ZM92.6598 23.45V27.8H95.2398V28.7H92.6598V38.24C92.6598 38.86 92.7698 39.34 92.9898 39.68C93.2098 40 93.6198 40.16 94.2198 40.16C94.5798 40.16 94.9398 39.99 95.2998 39.65C95.6798 39.29 95.9398 38.8 96.0798 38.18L96.7998 38.54C96.3798 40.38 95.1798 41.3 93.1998 41.3C90.9198 41.3 89.7798 40.2 89.7798 38V28.7H87.6798V27.8C88.6198 27.8 89.4698 27.41 90.2298 26.63C90.9898 25.85 91.3698 24.79 91.3698 23.45H92.6598ZM111.2 39.17C111.2 39.17 111.83 39.22 113.09 39.32V40.01C112.71 40.01 111.96 40.23 110.84 40.67C109.74 41.09 108.96 41.3 108.5 41.3V39.92C107.42 40.84 106.23 41.3 104.93 41.3C103.07 41.3 101.72 40.96 100.88 40.28C100.06 39.58 99.65 38.5 99.65 37.04V29.03C99.47 28.63 98.84 28.43 97.76 28.43V27.8H102.35V37.25C102.35 39.27 103.27 40.28 105.11 40.28C106.37 40.28 107.5 39.84 108.5 38.96V29.03C108.32 28.63 107.69 28.43 106.61 28.43V27.8H111.2V39.17ZM114.674 41V40.37C115.754 40.37 116.384 40.17 116.564 39.77V29.63C115.324 29.53 114.694 29.48 114.674 29.48V28.79C115.054 28.79 115.794 28.58 116.894 28.16C118.014 27.72 118.804 27.5 119.264 27.5V28.82C120.264 27.94 121.254 27.5 122.234 27.5C123.134 27.5 123.884 27.67 124.484 28.01C125.104 28.35 125.414 28.73 125.414 29.15C125.414 29.87 125.014 30.23 124.214 30.23C123.794 30.23 123.414 29.95 123.074 29.39C122.734 28.81 122.344 28.52 121.904 28.52C121.124 28.52 120.244 28.95 119.264 29.81V39.77C119.444 40.17 120.074 40.37 121.154 40.37V41H114.674ZM129.454 33.77C129.474 35.45 129.954 36.94 130.894 38.24C131.854 39.52 132.924 40.16 134.104 40.16C135.844 40.16 137.244 39.5 138.304 38.18L139.024 38.54C138.444 39.5 137.684 40.2 136.744 40.64C135.824 41.08 134.604 41.3 133.084 41.3C132.324 41.3 131.594 41.19 130.894 40.97C130.194 40.73 129.504 40.35 128.824 39.83C128.144 39.29 127.604 38.5 127.204 37.46C126.804 36.42 126.604 35.18 126.604 33.74C126.604 31.98 127.144 30.5 128.224 29.3C129.324 28.1 130.844 27.5 132.784 27.5C134.904 27.5 136.484 28.1 137.524 29.3C138.564 30.48 139.084 31.97 139.084 33.77H129.454ZM129.484 32.84H136.144C136.024 31.4 135.714 30.3 135.214 29.54C134.734 28.78 133.884 28.4 132.664 28.4C131.964 28.4 131.284 28.81 130.624 29.63C129.984 30.45 129.604 31.52 129.484 32.84ZM142.269 24.23C141.029 24.13 140.399 24.08 140.379 24.08V23.39C140.759 23.39 141.499 23.18 142.599 22.76C143.719 22.32 144.509 22.1 144.969 22.1V28.79C145.949 27.85 147.319 27.38 149.079 27.38C149.739 27.38 150.389 27.5 151.029 27.74C151.689 27.96 152.339 28.32 152.979 28.82C153.639 29.3 154.169 30.02 154.569 30.98C154.989 31.94 155.199 33.06 155.199 34.34C155.199 36.58 154.569 38.3 153.309 39.5C152.069 40.7 150.439 41.3 148.419 41.3C146.979 41.3 145.789 40.92 144.849 40.16C143.749 40.92 142.889 41.3 142.269 41.3V24.23ZM144.969 29.81V39.23C145.769 39.93 146.859 40.28 148.239 40.28C149.339 40.28 150.299 39.76 151.119 38.72C151.939 37.66 152.349 36.2 152.349 34.34C152.349 32.58 152.019 31.15 151.359 30.05C150.699 28.95 149.839 28.4 148.779 28.4C147.099 28.4 145.829 28.87 144.969 29.81ZM159.731 30.02C160.011 30.02 160.251 30.12 160.451 30.32C160.671 30.52 160.781 30.83 160.781 31.25C160.781 31.59 160.641 31.85 160.361 32.03C160.101 32.21 159.791 32.3 159.431 32.3C159.051 32.3 158.741 32.17 158.501 31.91C158.261 31.63 158.141 31.26 158.141 30.8C158.141 29.76 158.571 28.95 159.431 28.37C160.291 27.79 161.511 27.5 163.091 27.5C164.951 27.5 166.311 27.96 167.171 28.88C168.051 29.8 168.491 31.02 168.491 32.54V38.48C168.491 39.12 168.591 39.59 168.791 39.89C169.011 40.19 169.271 40.34 169.571 40.34C169.831 40.34 170.061 40.27 170.261 40.13C170.481 39.99 170.591 39.82 170.591 39.62H171.131C171.131 40.18 170.921 40.59 170.501 40.85C170.101 41.11 169.391 41.24 168.371 41.24C167.371 41.24 166.661 40.83 166.241 40.01C165.061 40.87 163.591 41.3 161.831 41.3C158.831 41.3 157.331 40.08 157.331 37.64C157.331 37.12 157.511 36.65 157.871 36.23C158.251 35.81 158.791 35.46 159.491 35.18C160.191 34.9 160.851 34.68 161.471 34.52C162.091 34.34 162.861 34.15 163.781 33.95C164.721 33.73 165.391 33.56 165.791 33.44C165.791 31.76 165.571 30.53 165.131 29.75C164.691 28.97 163.911 28.58 162.791 28.58C160.991 28.58 159.971 29.06 159.731 30.02ZM165.971 39.26C165.851 38.82 165.791 38.28 165.791 37.64V34.1C165.571 34.18 165.191 34.29 164.651 34.43C164.131 34.57 163.701 34.69 163.361 34.79C163.041 34.89 162.651 35.04 162.191 35.24C161.731 35.44 161.371 35.64 161.111 35.84C160.851 36.04 160.621 36.31 160.421 36.65C160.221 36.97 160.121 37.32 160.121 37.7C160.121 38.66 160.301 39.33 160.661 39.71C161.041 40.09 161.601 40.28 162.341 40.28C163.661 40.28 164.871 39.94 165.971 39.26Z" fill="#3E7D4E"/>
</svg>
